<svg enable-background="new 0 0 960 960" viewBox="0 0 960 960" xmlns="http://www.w3.org/2000/svg"><path d="m310.1 226.1h133.6v484.8h-133.6z" fill="#c1272d"/><path d="m413.2 226.1h30.5v484.8h-30.5z" fill="#ad1f2a"/><path d="m310.1 268.1h133.6v76.3h-133.6z" fill="#fbb03b"/><path d="m172.6 191.8h137.5v519.2h-137.5z" fill="#8c6239"/><path d="m279.5 191.8h30.5v519.2h-30.5z" fill="#7f532f"/><g fill="#603813"><path d="m172.6 226.1h137.5v61.1h-137.5z"/><path d="m172.6 611.7h137.5v64.9h-137.5z"/><path d="m172.6 611.7h137.5v64.9h-137.5z"/><path d="m172.6 573.5h137.5v19.1h-137.5z"/></g><path d="m310.1 367.4h133.6v11.5h-133.6z" fill="#fbb03b"/><path d="m310.1 638.4h133.6v11.5h-133.6z" fill="#fbb03b"/><path d="m310.1 665.1h133.6v19.1h-133.6z" fill="#fbb03b"/><path d="m443.7 207.1h122.2v503.9h-122.2z" fill="#0071bc"/><path d="m535.4 207.1h30.5v503.9h-30.5z" fill="#04679e"/><path d="m539.2 590.7c0 20-16.2 36.3-36.3 36.3-20 0-36.3-16.2-36.3-36.3v-297.8c0-20 16.2-36.3 36.3-36.3 20 0 36.3 16.2 36.3 36.3z" fill="#2e3192"/><path d="m416 596.4h-70.6c-2.7 0-4.8-2.2-4.8-4.8v-127.8c0-2.7 2.2-4.8 4.8-4.8h70.6c2.7 0 4.8 2.2 4.8 4.8v127.8c0 2.7-2.1 4.8-4.8 4.8z" fill="#fbb03b"/><path d="m609.1 217.6h134.2v484.5h-134.2z" fill="#2dafd3" transform="matrix(.982 -.1888 .1888 .982 -74.6591 135.9342)"/><path d="m709.7 208.1h32.6v484.5h-32.6z" fill="#229eba" transform="matrix(.982 -.1888 .1888 .982 -71.9718 145.1693)"/><path d="m573.2 266.4h133.6v11.5h-133.6z" fill="#0f6193" transform="matrix(.982 -.1888 .1888 .982 -39.8746 125.7269)"/><path d="m578.3 293.1h133.6v11.5h-133.6z" fill="#0f6193" transform="matrix(.982 -.1888 .1888 .982 -44.8247 127.1713)"/><path d="m641.7 622.3h133.6v11.5h-133.6z" fill="#0f6193" transform="matrix(.982 -.1888 .1888 .982 -105.8363 145.0585)"/><path d="m646.8 649h133.6v11.5h-133.6z" fill="#0f6193" transform="matrix(.982 -.1888 .1888 .982 -110.7864 146.5029)"/><ellipse cx="241.7" cy="367.3" fill="#603813" rx="39" ry="39"/><path d="m531.5 669h-57.3c-3.2 0-5.7-2.6-5.7-5.7s2.6-5.7 5.7-5.7h57.3c3.2 0 5.7 2.6 5.7 5.7s-2.5 5.7-5.7 5.7z" fill="#2e3192"/><path d="m728.4 582.6-51.1 9.8c-3.5.7-6.8-1.6-7.5-5.1l-43.1-224.3c-.7-3.5 1.6-6.8 5.1-7.5l51.1-9.8c3.5-.7 6.8 1.6 7.5 5.1l43.2 224.4c.5 3.4-1.8 6.8-5.2 7.4z" fill="#0f6193"/><path d="m134.4 711h691.1v57.3h-691.1z" fill="#603813"/></svg>